<?xml version="1.0" standalone="no"?>
<!DOCTYPE svg PUBLIC "-//W3C//DTD SVG 20010904//EN"
 "http://www.w3.org/TR/2001/REC-SVG-20010904/DTD/svg10.dtd">
<svg version="1.0" xmlns="http://www.w3.org/2000/svg"
 width="360.000000pt" height="360.000000pt" viewBox="0 0 360.000000 360.000000"
 preserveAspectRatio="xMidYMid meet">
<metadata>
Created by potrace 1.14, written by Peter Selinger 2001-2017
</metadata>
<g transform="translate(0.000000,360.000000) scale(0.100000,-0.100000)"
fill="#000000" stroke="none">
<path d="M1715 3128 c-4 -35 -18 -128 -31 -207 l-23 -143 28 -42 c45 -67 46
-70 6 -43 -40 28 -55 27 -55 -1 0 -38 -92 -356 -125 -430 l-35 -79 40 -93 c22
-52 38 -95 37 -97 -2 -2 -25 29 -51 68 -26 39 -49 69 -51 67 -2 -1 -13 -27
-24 -56 l-21 -52 96 -173 c53 -94 98 -174 99 -177 2 -3 0 -11 -3 -17 -5 -7
-46 50 -101 138 -52 82 -96 148 -97 146 -2 -2 2 -124 8 -271 l12 -269 65 -111
c50 -84 88 -133 158 -203 l92 -93 43 -272 c30 -190 45 -263 49 -242 4 16 15
63 24 104 l17 75 -46 160 c-32 111 -52 165 -66 175 -41 31 -87 383 -77 585 9
170 23 240 105 520 72 251 75 264 76 370 1 61 -2 151 -6 200 -10 122 -3 98 21
-69 24 -165 19 -223 -36 -410 -112 -382 -137 -556 -114 -811 11 -124 39 -337
45 -343 2 -1 37 16 79 38 74 40 75 41 155 168 91 145 94 150 122 222 l21 53
-23 -15 c-13 -8 -45 -28 -73 -43 l-50 -29 82 88 c75 81 82 92 88 140 4 28 5
64 3 79 l-3 28 -105 -77 c-58 -42 -111 -81 -117 -87 -9 -7 -13 -5 -13 6 0 9
54 57 121 107 112 85 140 113 126 126 -3 3 -58 -31 -122 -76 -64 -45 -118 -80
-121 -77 -3 3 51 54 120 113 l126 109 0 95 0 94 -42 -40 c-100 -93 -118 -107
-118 -96 0 6 38 53 84 103 83 91 83 91 79 138 -19 193 -56 498 -68 556 l-14
70 -188 182 c-103 101 -191 183 -195 183 -3 0 -9 -28 -13 -62z m132 -360 c-3
-7 -5 -2 -5 12 0 14 2 19 5 13 2 -7 2 -19 0 -25z"/>
</g>
</svg>
