<svg id="svg" version="1.1" xmlns="http://www.w3.org/2000/svg" xmlns:xlink="http://www.w3.org/1999/xlink" width="400" height="400" viewBox="0, 0, 400,400"><g id="svgg"><path id="path0" d="M287.125 9.343 C 252.250 18.933,211.333 44.550,207.031 59.488 C 206.320 61.957,204.222 65.492,202.369 67.345 C 198.076 71.638,197.314 112.105,201.500 113.500 C 202.875 113.958,204.000 115.926,204.000 117.873 C 204.000 121.046,208.932 135.389,216.250 153.500 C 217.695 157.075,219.506 160.000,220.275 160.000 C 221.044 160.000,223.669 163.229,226.108 167.175 C 234.359 180.526,244.000 186.449,244.000 178.167 C 244.000 176.058,244.698 174.033,245.552 173.667 C 246.405 173.300,248.634 169.045,250.505 164.211 L 253.906 155.421 244.679 147.300 C 239.604 142.833,234.226 136.242,232.726 132.653 C 229.311 124.480,229.327 124.000,233.000 124.000 C 234.650 124.000,236.000 125.050,236.000 126.332 C 236.000 127.615,237.287 130.090,238.860 131.832 C 254.381 149.020,255.316 149.210,259.227 135.963 C 261.804 127.235,261.760 127.060,255.417 120.925 C 243.819 109.705,241.281 105.324,245.458 103.730 C 247.676 102.883,249.748 103.550,251.000 105.513 C 259.241 118.434,266.372 119.322,269.807 107.854 C 272.444 99.055,271.954 97.778,262.369 88.455 C 257.450 83.670,257.380 79.379,262.205 78.442 C 263.851 78.122,266.056 80.473,267.366 83.942 C 270.734 92.865,275.129 91.572,277.825 80.865 C 279.577 73.907,280.944 71.900,283.563 72.442 C 287.034 73.160,287.143 74.588,284.704 87.500 C 283.400 94.406,288.362 96.838,293.426 91.774 C 295.998 89.202,300.000 91.042,300.000 94.798 C 300.000 97.070,294.934 99.223,280.699 103.002 C 278.154 103.677,275.869 106.360,275.104 109.572 C 274.392 112.557,273.342 116.575,272.770 118.500 C 271.887 121.474,273.103 122.000,280.865 122.000 C 285.889 122.000,290.000 121.100,290.000 120.000 C 290.000 116.973,297.420 117.605,298.621 120.734 C 299.838 123.905,289.345 127.708,277.209 128.495 C 269.852 128.972,269.272 129.494,266.813 137.860 C 263.019 150.770,268.720 153.496,286.348 147.200 C 295.157 144.054,299.754 145.845,294.547 150.394 C 289.075 155.176,276.322 158.576,268.572 157.318 C 262.777 156.378,261.402 156.853,260.556 160.091 C 259.993 162.241,258.851 164.000,258.017 164.000 C 257.183 164.000,255.959 166.475,255.298 169.500 C 254.637 172.525,253.493 177.126,252.756 179.725 C 251.456 184.308,251.681 184.410,260.208 183.109 C 277.352 180.494,290.000 177.341,290.000 175.682 C 290.000 174.757,290.996 174.000,292.214 174.000 C 312.990 174.000,356.000 128.896,356.000 107.109 C 356.000 94.599,343.485 50.000,339.975 50.000 C 339.156 50.000,337.334 47.075,335.926 43.500 C 331.356 31.889,311.704 3.987,308.257 4.214 C 306.466 4.331,296.956 6.639,287.125 9.343 M107.000 121.400 C 93.770 124.496,81.667 128.615,79.501 130.760 C 78.126 132.123,72.151 135.869,66.225 139.086 C 60.299 142.303,54.457 146.525,53.244 148.468 C 52.031 150.410,50.129 152.037,49.019 152.081 C 42.101 152.360,33.751 163.638,35.108 170.870 C 36.801 179.897,47.241 208.233,49.463 209.834 C 50.353 210.475,52.182 213.250,53.528 216.000 C 64.255 237.922,80.944 254.388,96.127 258.031 C 112.684 262.002,151.311 256.757,156.000 249.900 C 156.550 249.096,160.685 246.521,165.189 244.179 C 176.249 238.428,194.776 220.906,193.450 217.452 C 192.837 215.854,186.273 213.620,177.699 212.093 C 169.615 210.652,161.991 209.090,160.757 208.621 C 159.523 208.153,155.948 211.824,152.813 216.779 C 149.545 221.945,145.068 226.302,142.321 226.992 C 134.412 228.977,134.836 226.380,143.654 218.832 C 153.269 210.602,154.111 206.704,146.870 203.950 C 139.012 200.963,134.569 201.608,133.447 205.900 C 132.351 210.090,120.316 218.431,117.699 216.814 C 116.828 216.276,118.565 213.087,121.558 209.728 C 128.570 201.858,128.415 199.555,120.724 197.350 C 114.630 195.602,104.524 200.204,99.531 207.000 C 98.669 208.173,98.049 207.752,98.031 205.981 C 98.014 204.321,99.800 201.838,102.000 200.464 C 107.961 196.741,106.899 194.430,98.000 191.764 C 86.453 188.304,87.199 183.335,99.000 185.105 C 108.391 186.513,111.031 183.831,105.600 178.400 C 103.838 176.638,103.791 175.409,105.426 173.774 C 108.747 170.453,111.682 173.273,113.172 181.215 C 114.467 188.117,119.492 192.000,127.130 192.000 C 130.681 192.000,131.032 181.832,127.600 178.400 C 125.733 176.533,125.733 175.467,127.600 173.600 C 131.484 169.716,138.000 181.894,138.000 193.037 C 138.000 197.725,150.972 201.828,154.534 198.266 C 156.634 196.166,152.881 179.294,150.108 178.369 C 147.083 177.361,147.501 172.000,150.605 172.000 C 153.616 172.000,160.024 188.514,160.010 196.236 C 160.001 200.920,161.215 201.801,171.500 204.582 C 190.736 209.783,196.000 210.529,196.000 208.054 C 196.000 202.089,189.459 178.000,187.840 178.000 C 186.828 178.000,186.000 176.988,186.000 175.750 C 186.000 145.425,139.892 113.704,107.000 121.400 M254.747 226.236 C 255.469 229.847,256.854 233.296,257.823 233.901 C 258.793 234.505,260.645 238.939,261.939 243.754 C 263.684 250.249,264.873 251.927,266.546 250.254 C 269.162 247.638,286.000 247.168,286.000 249.711 C 286.000 250.652,288.768 252.227,292.151 253.211 C 298.197 254.970,299.863 259.609,294.000 258.362 C 281.873 255.784,268.001 255.729,268.011 258.260 C 268.057 269.645,272.204 276.000,279.594 276.011 C 287.833 276.024,301.343 279.318,302.796 281.670 C 305.510 286.062,300.413 288.408,293.549 285.926 C 289.729 284.545,284.282 283.998,281.444 284.710 L 276.284 286.005 281.313 295.002 C 285.505 302.503,287.326 304.000,292.255 304.000 C 298.525 304.000,307.713 310.705,304.318 312.803 C 303.228 313.477,299.864 313.089,296.842 311.940 C 290.171 309.404,286.768 311.894,289.538 317.285 C 293.536 325.067,294.243 332.000,291.038 332.000 C 289.367 332.000,288.000 330.695,288.000 329.099 C 288.000 327.504,286.750 325.479,285.223 324.599 C 283.696 323.720,282.108 321.200,281.696 319.000 C 280.635 313.348,277.530 314.340,273.838 321.512 C 271.725 325.616,269.832 327.132,268.132 326.081 C 265.375 324.378,267.562 318.392,273.385 311.701 C 276.712 307.879,275.290 296.380,270.778 290.605 C 267.793 286.785,256.000 297.015,256.000 303.424 C 256.000 306.844,252.155 306.731,250.828 303.272 C 249.213 299.064,257.499 284.870,263.045 282.343 C 269.161 279.557,269.215 278.036,263.436 271.311 C 255.869 262.505,242.000 268.650,242.000 280.809 C 242.000 282.667,240.329 284.000,238.000 284.000 C 235.800 284.000,234.000 282.997,234.000 281.771 C 234.000 277.722,244.589 260.000,247.008 260.000 C 255.999 260.000,254.731 233.765,245.449 227.724 C 244.370 227.022,244.106 225.447,244.862 224.224 C 245.618 223.001,245.283 222.000,244.118 222.000 C 242.953 222.000,242.000 222.900,242.000 224.000 C 242.000 225.100,240.701 226.000,239.113 226.000 C 237.525 226.000,233.250 229.634,229.613 234.076 C 225.976 238.518,220.964 244.593,218.476 247.576 C 213.168 253.941,206.023 271.826,204.526 282.500 C 203.947 286.625,202.692 290.000,201.737 290.000 C 200.781 290.000,200.000 296.750,200.000 305.000 C 200.000 313.667,200.844 320.000,202.000 320.000 C 203.100 320.000,204.000 322.087,204.000 324.637 C 204.000 343.439,219.571 363.438,241.898 373.312 C 247.929 375.980,253.345 378.854,253.932 379.699 C 255.207 381.534,279.216 388.587,299.675 393.137 L 314.351 396.400 319.899 390.700 C 322.950 387.565,328.391 378.250,331.990 370.000 C 335.589 361.750,339.180 354.550,339.970 354.000 C 345.784 349.952,354.966 305.790,353.303 289.876 C 351.430 271.955,333.896 246.154,323.500 246.019 C 322.675 246.009,320.327 244.327,318.283 242.283 C 314.624 238.624,292.720 229.656,281.020 227.027 C 277.731 226.288,274.581 224.979,274.020 224.119 C 273.459 223.259,268.598 221.906,263.217 221.113 L 253.434 219.670 254.747 226.236 " stroke="none" fill="#000000" fill-rule="evenodd"></path></g></svg>